HIERARCHY
ROOT Hips
{
    OFFSET 0.0 0.0 0.0
    CHANNELS 6 Xposition Yposition Zposition Zrotation Xrotation Yrotation
    JOINT LeftHipJoint
    {
        OFFSET 0.1 0.0 0.0
        CHANNELS 3 Zrotation Xrotation Yrotation
        JOINT LeftUpLeg
        {
            OFFSET 111.6397187967939 0.0 0.0
            CHANNELS 3 Zrotation Xrotation Yrotation
            JOINT LeftLeg
            {
                OFFSET 0.0 0.0 -426.8534067483615
                CHANNELS 3 Zrotation Xrotation Yrotation
                JOINT LeftFoot
                {
                    OFFSET 0.0 0.0 -425.72792232755853
                    CHANNELS 3 Zrotation Xrotation Yrotation
                    End Site
                    {
                        OFFSET 0.0 -0.1 0.0
                    }
                }
            }
        }
    }
    JOINT LowerBack
    {
        OFFSET 0.0 0.0 0.1
        CHANNELS 3 Zrotation Xrotation Yrotation
        JOINT Spine
        {
            OFFSET 0.0 0.0 224.81714696681246
            CHANNELS 3 Zrotation Xrotation Yrotation
            JOINT Spine1
            {
                OFFSET 0.0 0.0 250.063927703673
                CHANNELS 3 Zrotation Xrotation Yrotation
                JOINT LeftShoulder
                {
                    OFFSET 0.1 0.0 0.0
                    CHANNELS 3 Zrotation Xrotation Yrotation
                    JOINT LeftArm
                    {
                        OFFSET 132.24616803973083 0.0 0.0
                        CHANNELS 3 Zrotation Xrotation Yrotation
                        JOINT LeftForeArm
                        {
                            OFFSET 259.19798484146725 0.0 0.0
                            CHANNELS 3 Zrotation Xrotation Yrotation
                            JOINT LeftHand
                            {
                                OFFSET 240.67178698780975 0.0 0.0
                                CHANNELS 3 Zrotation Xrotation Yrotation
                                End Site
                                {
                                    OFFSET 0.1 0.0 0.0
                                }
                            }
                        }
                    }
                }
                JOINT Neck
                {
                    OFFSET 0.0 0.0 0.1
                    CHANNELS 3 Zrotation Xrotation Yrotation
                    JOINT Neck1
                    {
                        OFFSET 0.0 0.0 91.33611814024131
                        CHANNELS 3 Zrotation Xrotation Yrotation
                        End Site
                        {
                            OFFSET 0.0 0.0 111.08537337374221
                        }
                    }
                }
                JOINT RightShoulder
                {
                    OFFSET -0.1 0.0 0.0
                    CHANNELS 3 Zrotation Xrotation Yrotation
                    JOINT RightArm
                    {
                        OFFSET -132.24616803973083 0.0 0.0
                        CHANNELS 3 Zrotation Xrotation Yrotation
                        JOINT RightForeArm
                        {
                            OFFSET -259.19798484146725 0.0 0.0
                            CHANNELS 3 Zrotation Xrotation Yrotation
                            JOINT RightHand
                            {
                                OFFSET -240.67178698780975 0.0 0.0
                                CHANNELS 3 Zrotation Xrotation Yrotation
                                End Site
                                {
                                    OFFSET -0.1 0.0 0.0
                                }
                            }
                        }
                    }
                }
            }
        }
    }
    JOINT RightHipJoint
    {
        OFFSET -0.1 0.0 0.0
        CHANNELS 3 Zrotation Xrotation Yrotation
        JOINT RightUpLeg
        {
            OFFSET -111.6397187967939 0.0 0.0
            CHANNELS 3 Zrotation Xrotation Yrotation
            JOINT RightLeg
            {
                OFFSET 0.0 0.0 -426.8534067483615
                CHANNELS 3 Zrotation Xrotation Yrotation
                JOINT RightFoot
                {
                    OFFSET 0.0 0.0 -425.72792232755853
                    CHANNELS 3 Zrotation Xrotation Yrotation
                    End Site
                    {
                        OFFSET 0.0 -0.1 0.0
                    }
                }
            }
        }
    }
}
MOTION
Frames: 9
Frame Time: 0.03333333333333333
0.0 0.0 879.6733546414041 27.740293027374005 -4.422336284090686 7.122351866008778 0.0 0.0 0.0 -0.0028038107284059192 2.617495893577474 -9.104759374454789 -1.532448894707801 9.328831814820276 1.925618520235265 0.0 0.0 1.987846675914698e-16 0.0 0.0 0.0 -0.018753098472134015 7.620715443855732 -1.4596804221093687 3.5804777498077627 -5.96062920665976e-16 1.8630384649986803e-17 0.0 0.0 3.975693351829396e-16 3.267274419249378 -5.355321217103574 53.420497538554194 -55.50249630828267 2.000618328324244e-15 6.443539607419266e-15 3.1805546814635168e-15 0.0 0.0 0.0 0.0 3.975693351829396e-16 -0.6773821291885275 18.883157929474777 -6.18036513516561 0.0 0.0 3.975693351829396e-16 29.90437465563772 14.895541892882047 -66.44656297328481 91.66177564234857 -4.432284362575826e-15 4.562736860304765e-15 0.0 0.0 0.0 0.0 0.0 0.0 -0.0005052322207134383 -1.304807006528899 -6.3323008524862345 -1.3734735479436322 11.93236231730871 0.903605079778485 0.0 0.0 1.987846675914698e-16
0.0 0.0 879.6733546414041 28.00947487973602 -5.234682207518651 7.01043844643398 0.0 0.0 0.0 -0.005920920185566085 3.4754509853495428 -9.17558541078602 -1.5205122528025727 9.174225239696705 2.142621979154609 0.0 0.0 -1.987846675914698e-16 0.0 0.0 0.0 -0.02133394142969403 7.921610607976354 -1.6042177092282996 3.12397097952012 6.421901235281546e-16 1.6727861641243325e-15 0.0 0.0 -3.975693351829396e-16 -1.2737978011921298 -2.0478663682211833 55.07697684702419 -55.74625095028378 -2.252664410643386e-14 5.176655012751787e-15 3.1805546814635156e-15 8.827812596100317e-32 3.1805546814635156e-15 0.0 0.0 -3.975693351829396e-16 -0.9949667985600559 19.738151223984005 -6.19731809148248 0.0 0.0 -3.975693351829396e-16 30.44175776927397 15.02413540241058 -66.02597646900179 90.91523519812417 -8.995680202942523e-15 7.184943022664292e-17 3.180554681463516e-15 -2.758691436281349e-33 -9.939233379573487e-17 0.0 0.0 0.0 -0.003227819953067238 -0.08651142087427749 -6.067955343946641 -1.2856837223476707 11.632732930930633 0.3760825407841434 0.0 0.0 0.0
0.0 0.0 879.6733546414041 28.62468945115736 -5.8190899445610595 6.698656168704529 6.896728590703373e-33 7.951386703658792e-16 -9.93923337957349e-16 -0.015422490478808861 3.8378833306838973 -8.886905986132016 -1.5837449601025522 9.715125453204923 1.9166207390813155 0.0 0.0 -1.987846675914698e-16 6.896728590703373e-33 7.951386703658792e-16 -9.93923337957349e-16 -0.041272891311560825 8.332227996611847 -1.393163162545789 2.905984556793596 1.3861483145455368e-17 5.464820663207829e-16 0.0 0.0 -9.93923337957349e-17 -5.249865495621763 0.47801864851587383 56.98005879524976 -55.10130607299451 -5.394718493440339e-15 -6.8501484922705694e-15 0.0 0.0 0.0 0.0 0.0 -9.93923337957349e-17 -1.2838656242195783 20.388982666440736 -6.146046977429925 0.0 0.0 -9.93923337957349e-17 29.500475699971904 14.903800170917334 -66.42629285690829 90.12669753209865 8.986015294273459e-15 -9.005907974188685e-15 0.0 0.0 -4.969616689786745e-17 6.896728590703373e-33 7.951386703658792e-16 -9.93923337957349e-16 -0.007769277224657377 0.8615680741117226 -5.957606266388292 -1.2824673449420032 11.571000597581023 0.4382786917859659 0.0 0.0 -3.975693351829396e-16
0.0 0.0 879.6733546414041 29.054044481086112 -6.718939452624814 6.216388278416688 0.0 0.0 0.0 -0.07382088267062625 4.636889516245545 -8.506307937835995 -1.6452285270020972 9.77597742330981 1.9639630376008228 0.0 0.0 -1.987846675914698e-16 0.0 0.0 0.0 -0.14467702627551826 8.656369094788024 -0.7488081002484327 2.438323042633184 -6.284689173458667e-16 -1.502701473295048e-15 0.0 0.0 1.4908850069360235e-16 -9.296798050228547 3.663346489185737 58.84271597417118 -56.31600058966435 7.598399537358094e-15 -1.4195932407219517e-14 0.0 0.0 3.1805546814635168e-15 0.0 0.0 1.4908850069360235e-16 -1.8564053149392123 20.504276562862298 -6.205890908646385 0.0 0.0 1.4908850069360235e-16 29.831558556681944 14.467487036575298 -66.69881031939588 89.2192666454138 4.5898152249305465e-15 -1.3462992157636637e-14 0.0 0.0 0.0 0.0 0.0 0.0 -0.036032781295060726 1.9731073205368856 -5.573547067354414 -1.2957794611381994 11.186301742580504 0.6749013571247675 0.0 0.0 0.0
0.0 0.0 879.6733546414041 29.188451417726167 -7.520099948918657 5.965652489820489 0.0 0.0 0.0 -0.12594146789682942 5.652055697771714 -8.312243529104013 -1.6594659967676653 9.689410210271328 1.8713909464645428 0.0 4.969616689786745e-17 0.0 0.0 0.0 0.0 -0.1801481843806973 7.847056315141277 -0.8615133246904997 2.196188342393216 1.619057156474838e-17 8.446796834580955e-16 -6.3611093629270335e-15 1.987846675914698e-16 1.1034765745125397e-32 -13.91092704581017 6.621799405339889 61.38090300356193 -54.62042023332385 -4.468994808158547e-15 8.654734341122443e-15 0.0 0.0 0.0 -6.3611093629270335e-15 1.987846675914698e-16 1.1034765745125397e-32 -1.9108118367806148 22.131460557107136 -5.711973889441493 -6.3611093629270335e-15 1.987846675914698e-16 1.1034765745125397e-32 29.901022096703404 14.85720685753928 -67.00762172089098 88.12108470297892 -8.847260951853265e-15 -9.142254807118664e-15 0.0 0.0 0.0 0.0 0.0 0.0 -0.07285027608308087 3.03919882080403 -5.166808717735262 -1.3045780912075453 11.343254235114562 0.6050914614843929 -5.517382872562698e-33 -7.951386703658792e-16 -7.951386703658792e-16
0.0 0.0 879.6733546414041 30.017502106583674 -7.629616866621722 5.6914225204491204 0.0 0.0 0.0 -0.14585219281144693 5.581256815790367 -8.26397446099222 -1.713791812493453 9.82138276180376 1.9358824767709693 0.0 0.0 0.0 0.0 0.0 0.0 -0.20733518378011265 7.716455216862431 -0.6510555849742439 2.534566095228809 6.006045481327957e-16 1.8554680664649452e-16 0.0 0.0 1.987846675914698e-16 -17.621330762127513 8.686428300467142 63.80415375196035 -54.01003171054643 -2.340934006072279e-15 -1.6420363062360637e-14 0.0 0.0 0.0 0.0 0.0 1.987846675914698e-16 -2.6784086545277335 22.994609492172106 -5.175703261889244 0.0 0.0 1.987846675914698e-16 29.693494922444692 14.251587889035836 -67.34315280029891 87.17059672757553 -4.607661860072172e-15 4.385563191923498e-15 0.0 0.0 0.0 0.0 0.0 0.0 -0.09627684300757523 3.4624271927948347 -4.872414734366435 -1.2750457160361683 11.212840296549643 0.4763817167757379 0.0 0.0 0.0
0.0 0.0 879.6733546414041 30.425667522550192 -7.4310044708112795 5.440711089329951 0.0 0.0 0.0 -0.19246710946216025 5.123549251032834 -7.947451794453171 -1.8726622664175627 10.350671161388075 1.6317985505636583 0.0 0.0 3.975693351829396e-16 0.0 0.0 0.0 -0.2849427995518631 7.41926516067839 -0.4587800368579854 1.9570499128820034 -2.0469653501998792e-16 -3.444276612482745e-16 -1.7241821476758432e-34 -1.987846675914698e-16 -9.93923337957349e-17 -21.555829161365644 9.427079966806128 65.5532844690592 -52.31208558705989 -9.93774955975291e-15 5.805087141243913e-15 8.827812596100317e-32 3.1805546814635164e-15 -3.1805546814635164e-15 -1.7241821476758432e-34 -1.987846675914698e-16 -9.93923337957349e-17 -1.9984987065452762 22.748670814903125 -5.515635231407454 -1.7241821476758432e-34 -1.987846675914698e-16 -9.93923337957349e-17 29.513654172352126 14.554413710795057 -67.65605070521742 87.27776547328494 -1.3596987193834667e-14 4.176182573389955e-15 0.0 0.0 -1.5902773407317584e-15 0.0 0.0 0.0 -0.12515793418728172 3.175799883130767 -4.638464391417225 -1.3541911616941564 11.164400217567984 0.47829865875434713 0.0 0.0 0.0
0.0 0.0 879.6733546414041 30.65167073482859 -7.536628812303744 5.234917685265034 0.0 0.0 0.0 -0.2391102914396137 5.188378726233727 -7.786966716387957 -1.968686736416462 10.530110750788056 1.4587798440386641 0.0 0.0 0.0 0.0 0.0 0.0 -0.3538138970181192 7.5366193377670205 -0.31508952852100336 2.169981169390803 4.0784930755498966e-16 5.39031639266142e-16 0.0 0.0 -1.987846675914698e-16 -24.935209710175922 10.096209844518778 67.32077716320215 -51.74285521827117 9.02034744821432e-15 -1.1311326599889874e-14 0.0 0.0 -1.5902773407317584e-15 0.0 0.0 -1.987846675914698e-16 -2.5203737760346994 22.90726511662197 -5.2237064195829905 0.0 0.0 -1.987846675914698e-16 27.90187550647772 12.967663196686432 -66.43327592425351 86.81331767139932 4.3711759102035925e-15 4.621312961613157e-15 0.0 0.0 -1.3914926731402886e-15 0.0 0.0 0.0 -0.16561537759317793 3.4640412055761156 -4.373703052393009 -1.3525035385295303 10.804755502335356 0.26279865355874 0.0 0.0 0.0
0.0 0.0 879.6733546414041 30.891138053432126 -7.080787808982561 5.544787226763113 0.0 0.0 0.0 -0.18267302489385537 4.519824027481509 -8.263569114201804 -1.978743819368318 10.423698108585942 1.381357955489368 0.0 0.0 0.0 0.0 0.0 0.0 -0.31364600280049604 7.5692744237725496 -1.187972398409482 2.0462137582056807 2.2182424809499488e-16 1.2883449204156672e-15 4.310455369189608e-34 1.987846675914698e-16 -2.4848083448933725e-16 -26.863534472394235 9.923190682449343 69.33592249595283 -52.7331131628134 -1.605308610418983e-14 1.0901382488898704e-14 0.0 0.0 -1.5902773407317584e-15 4.310455369189608e-34 1.987846675914698e-16 -2.4848083448933725e-16 -1.643581474969246 22.58056219616644 -4.629994994594336 4.310455369189608e-34 1.987846675914698e-16 -2.4848083448933725e-16 26.4032412294788 13.163449377941253 -65.80116851878168 87.96383238457895 -1.7829253845322934e-14 -9.314227321158592e-15 0.0 0.0 -1.5902773407317584e-15 0.0 0.0 0.0 -0.14721245901430247 3.4741290806830305 -4.843750044595417 -1.289188416522811 10.08917618014154 0.28633834771367067 0.0 0.0 -3.975693351829396e-16
